<?xml version="1.0" encoding="UTF-8" standalone="no"?>
<!DOCTYPE svg PUBLIC "-//W3C//DTD SVG 1.1//EN" "http://www.w3.org/Graphics/SVG/1.1/DTD/svg11.dtd">
<svg width="100%" height="100%" viewBox="0 0 1335 620" version="1.1" xmlns="http://www.w3.org/2000/svg" xmlns:xlink="http://www.w3.org/1999/xlink" xml:space="preserve" xmlns:serif="http://www.serif.com/" style="fill-rule:evenodd;clip-rule:evenodd;stroke-linejoin:round;stroke-miterlimit:2;">
    <g transform="matrix(1,0,0,1,-776.515,-793.17)">
        <g transform="matrix(4.16667,0,0,4.16667,0,0)">
            <g>
                <g>
                    <g>
                        <path d="M496.008,206.895C496.008,203.746 495.523,201.152 494.551,199.137C494.551,197.859 495.449,195.16 497.27,191.039C497.664,190.121 498.098,190.137 498.547,191.074C499.066,192.191 500.273,195.25 502.145,200.254C504.145,205.473 505.297,208.676 505.621,209.883C505.871,210.801 506.016,211.484 506.016,211.937C506.016,213.375 504.629,212.512 501.859,209.344C501.535,208.895 501.371,209.09 501.371,209.937C501.371,210.227 502.234,222.34 504,246.262C505.766,270.203 506.645,283.395 506.645,285.863C506.645,293.422 505.477,300.102 503.137,305.895C502.648,307.066 502.254,307.91 501.965,308.434C501.496,309.172 501.227,309.262 501.137,308.723C500.992,308.164 501.047,306.941 501.281,305.051C501.57,302.441 501.715,299.414 501.715,295.961C501.715,292.883 500.762,277.941 498.852,251.141C496.945,224.355 496.008,209.594 496.008,206.895Z" style="fill:rgb(154,75,183);fill-rule:nonzero;"/>
                        <g transform="matrix(0.24,0,0,0.24,0,0)">
                            <path d="M1862.61,1263.47C1843.66,1271.61 1829.21,1277.94 1819.58,1282.52C1799.25,1291.96 1785.22,1299.69 1777.65,1305.7C1763.7,1316.57 1743.46,1337.34 1716.83,1367.94C1700.99,1386.25 1685.03,1395.46 1669.04,1395.46C1655.63,1395.46 1643.93,1389.39 1633.87,1377.31C1623.31,1364.71 1618.05,1349.33 1618.05,1331.12C1618.05,1306.07 1628.32,1273.37 1648.94,1233.09C1651.12,1228.89 1652.77,1226.79 1653.97,1226.79C1654.58,1226.94 1654.8,1227.46 1654.8,1228.37C1654.8,1232.49 1650.38,1246.52 1641.38,1270.59C1632.45,1294.66 1628.03,1313.72 1628.03,1327.67C1628.03,1338.4 1630.5,1346.94 1635.53,1353.32C1640.77,1360.22 1648.19,1363.74 1657.65,1363.74C1674.38,1363.74 1691.24,1355.19 1708.35,1338.23C1719.16,1325.34 1730.03,1312.52 1740.82,1299.61C1754.93,1283.71 1773.45,1269.55 1796.4,1257.1C1809.83,1249.74 1833.32,1239.1 1866.45,1225.15L1899.53,1211.12C1894.81,1198.15 1892.48,1184.86 1892.48,1171.44C1892.48,1151.13 1895.48,1134.77 1901.48,1122.4C1907.55,1110.09 1915.5,1103.94 1925.41,1103.94C1934.18,1103.94 1942.43,1111.21 1950.15,1125.91C1957.05,1138.88 1960.58,1150.74 1960.58,1161.32C1960.58,1188.17 1952.7,1210.22 1936.95,1227.39C1948.13,1238.93 1961.48,1244.71 1977.07,1244.71L1977.11,1244.73L1977.15,1244.71C1990.12,1244.71 2002.72,1239.7 2014.96,1229.64C2018.48,1226.71 2020.28,1215.84 2020.28,1197.09C2020.28,1185.69 2016.75,1131.17 2009.7,1033.51C2002.65,935.871 1999.12,879.996 1999.12,865.883C1999.12,852.85 1997.02,842.121 1992.97,833.708C1992.97,828.842 1996.79,817.596 2004.38,799.967C2005.19,797.787 2006.02,796.746 2006.77,796.746C2007.6,796.746 2008.58,797.787 2009.62,799.967C2011.57,804.833 2016.6,817.596 2024.71,838.217C2032.88,859.896 2037.6,873.308 2038.95,878.483C2040.01,882.242 2040.59,885.092 2040.59,887.046C2040.59,892.967 2034.9,889.371 2023.5,876.008C2022.15,874.138 2021.47,874.967 2021.47,878.483C2021.47,879.312 2024.62,923.712 2031,1011.77C2037.37,1099.82 2040.59,1150.59 2040.59,1164.16C2040.59,1203.47 2033.55,1234.44 2019.45,1256.93C2007.45,1275.91 1993.34,1285.43 1977.15,1285.43L1977.11,1285.41L1977.07,1285.43C1962,1285.43 1946.63,1278.84 1930.88,1265.64C1922.48,1258.59 1915.87,1251.01 1911.15,1242.84L1866.45,1261.82L1862.61,1263.47ZM1950.23,1178.79C1950.23,1174.28 1946.7,1167.38 1939.8,1158.01C1932.23,1147.97 1925.62,1143.02 1920.07,1143.02C1915.87,1143.02 1911.75,1145.57 1907.7,1150.74C1903.65,1155.84 1901.63,1160.71 1901.63,1165.36C1901.63,1169.27 1903.79,1176.17 1908.3,1185.92C1912.12,1194.47 1915.05,1200.25 1917.22,1203.16C1922.93,1200.47 1929.44,1196.65 1936.8,1191.62C1945.72,1185.61 1950.23,1181.35 1950.23,1178.79Z" style="fill:rgb(0,162,181);fill-rule:nonzero;"/>
                        </g>
                        <path d="M406.531,222.879C406.531,219.746 406.043,217.172 405.07,215.156C405.07,214.023 405.973,211.324 407.789,207.059C408.023,206.535 408.223,206.285 408.383,206.285C408.582,206.285 408.797,206.555 409.066,207.113C409.59,208.211 410.797,211.27 412.668,216.293C414.664,221.492 415.816,224.699 416.141,225.902C416.395,226.82 416.539,227.504 416.539,227.957C416.539,229.395 415.152,228.531 412.379,225.363C412.055,224.914 411.895,225.113 411.895,225.957C411.895,226.246 412.598,236.254 414.035,255.98C415.477,275.711 416.195,286.816 416.195,289.281C416.195,296.879 415.027,303.555 412.723,309.316C412.234,310.484 411.84,311.332 411.551,311.855C411.102,312.629 410.832,312.734 410.723,312.195C410.598,311.602 410.652,310.359 410.867,308.469C411.156,305.879 411.316,302.855 411.316,299.398C411.316,296.266 410.508,283.414 408.926,260.824C407.32,238.234 406.531,225.578 406.531,222.879Z" style="fill:rgb(255,97,6);fill-rule:nonzero;"/>
                        <path d="M403.777,282.711C403.777,288.758 402.406,293.352 399.672,296.48C395.371,301.484 389.051,306.344 380.734,311.027C370.188,316.895 360.359,319.828 351.254,319.828C339.012,319.828 330.59,313.832 325.961,301.844C325.063,299.504 324.613,296.52 324.613,292.863C324.613,290.453 324.793,288.023 325.188,285.539C325.781,281.902 326.594,278.699 327.637,275.961C327.961,275.133 328.285,274.703 328.609,274.703C328.934,274.703 329.004,275.258 328.805,276.359C328.41,278.052 328.016,279.742 327.637,281.434C326.988,284.441 326.664,286.652 326.664,288.074C326.664,293.027 328.32,297.578 331.633,301.738C336.133,307.281 342.629,310.055 351.16,310.055C358.633,310.055 366.57,308.289 374.977,304.781C381.742,301.973 387.828,298.461 393.227,294.23C398.105,290.453 400.555,287.75 400.555,286.133C400.555,285.863 399.547,283.754 397.531,279.777C395.117,275.099 393.316,270.527 392.148,266.098C391.699,264.605 391.156,263.594 390.547,263.074C389.934,262.551 389.629,262.012 389.629,261.418C389.629,260.969 390.078,258.555 390.977,254.199C391.121,253.406 391.32,253.031 391.57,253.031C391.844,253.031 392.164,253.211 392.543,253.605C393.785,254.973 396.449,257.672 400.555,261.707C401.203,262.371 401.527,262.895 401.527,263.273C401.527,263.738 401.148,263.957 400.355,263.957C399.512,263.957 398.25,263.703 396.559,263.184C396.684,263.703 398.051,266.566 400.645,271.771C402.73,275.996 403.777,279.652 403.777,282.711Z" style="fill:rgb(160,207,0);fill-rule:nonzero;"/>
                        <path d="M354.852,207.668C354.852,204.539 354.367,201.965 353.395,199.949C353.395,198.812 354.293,196.113 356.113,191.848C356.348,191.324 356.543,191.074 356.707,191.074C356.902,191.074 357.121,191.344 357.391,191.902C357.91,193 359.117,196.059 360.988,201.082C362.988,206.285 364.141,209.488 364.465,210.695C364.715,211.613 364.859,212.297 364.859,212.746C364.859,214.187 363.473,213.32 360.703,210.152C360.379,209.703 360.215,209.902 360.215,210.746C360.215,211.035 360.918,221.043 362.359,240.773C363.797,260.5 364.52,271.605 364.52,274.07C364.52,281.668 363.348,288.344 361.043,294.105C360.559,295.277 360.16,296.121 359.875,296.645C359.426,297.418 359.152,297.527 359.047,296.984C358.922,296.391 358.973,295.148 359.191,293.258C359.477,290.668 359.641,287.645 359.641,284.187C359.641,281.055 358.828,268.203 357.246,245.613C355.645,223.023 354.852,210.371 354.852,207.668Z" style="fill:rgb(221,62,62);fill-rule:nonzero;"/>
                        <g transform="matrix(0.24,0,0,0.24,0,0)">
                            <path d="M1189.22,1280.87C1170.26,1289.01 1155.74,1295.34 1146.11,1299.92C1125.78,1309.36 1111.77,1317.09 1104.18,1323.1C1090.24,1333.97 1069.99,1354.74 1043.36,1385.33C1027.54,1403.65 1011.56,1412.86 995.59,1412.86C982.16,1412.86 970.46,1406.79 960.419,1394.71C949.84,1382.11 944.581,1366.75 944.581,1348.52C944.581,1323.47 954.869,1290.77 975.49,1250.49C977.652,1246.29 979.315,1244.19 980.519,1244.19C981.106,1244.34 981.331,1244.88 981.331,1245.77C981.331,1249.89 976.906,1263.92 967.906,1287.99C958.985,1312.06 954.556,1331.12 954.556,1345.07C954.556,1355.8 957.031,1364.34 962.06,1370.72C967.319,1377.62 974.74,1381.14 984.181,1381.14C1000.91,1381.14 1017.79,1372.59 1034.88,1355.65C1045.69,1342.74 1056.56,1329.92 1067.37,1317.01C1081.46,1301.12 1099.99,1286.95 1122.93,1274.5C1136.36,1267.14 1159.91,1256.5 1193.07,1242.55L1194.72,1241.85C1229.19,1227.18 1251.88,1215.79 1262.81,1207.75C1266.03,1205.34 1267.16,1202.12 1266.03,1198C1260.11,1176.32 1235.66,1147.45 1192.69,1111.36C1151.58,1078.22 1110.48,1045.13 1069.38,1012.06C1067.95,1010.87 1067.2,1006.36 1067.2,998.633C1067.2,988.592 1068.26,978.237 1070.44,967.513C1072.75,955.583 1075.6,948.013 1078.99,944.937C1102.16,924.008 1151.66,896.271 1227.41,861.687C1304.13,826.596 1354.84,809.033 1379.37,809.033C1386.64,809.033 1391.67,810.467 1394.35,813.396C1397.13,816.308 1398.49,821.271 1398.49,828.321C1398.49,844.433 1388.8,864.533 1369.62,888.542C1362.4,896.712 1355.13,904.883 1347.85,913.133C1336.32,926.562 1328.52,937.517 1324.46,945.917C1321.76,951.613 1320.04,954.458 1319.35,954.458C1318.68,954.458 1319.06,950.633 1320.56,943.067C1321.39,938.867 1324.61,931.592 1330.16,921.321C1335.19,911.783 1338.93,905.646 1341.49,902.783C1363.23,878.108 1376.21,861.833 1380.57,854.117C1381.01,853.371 1381.15,852.538 1381.15,851.708C1381.15,847.071 1375.08,844.808 1362.86,844.808C1343.51,844.808 1297.61,861.687 1225.16,895.442C1152.79,929.183 1103.21,956.933 1076.52,978.696C1074.79,980.192 1075.02,981.463 1077.33,982.521C1101.04,997.071 1124.37,1012.06 1147.32,1027.52C1202.51,1064.94 1251.34,1101.84 1293.93,1138.22C1306.84,1149.46 1319.66,1160.8 1332.55,1172.18C1347.85,1183.59 1377.31,1189.29 1392.08,1189.21L1392.38,1189.21C1405.24,1189.13 1417.74,1184.12 1429.88,1174.14C1433.4,1171.14 1435.2,1160.33 1435.2,1141.58C1435.2,1130.19 1432.28,1084.44 1426.43,1004.26C1420.58,924.088 1417.73,876.837 1417.73,862.433C1417.73,849.396 1415.62,838.737 1411.57,830.275C1411.57,825.683 1415.33,814.438 1422.98,796.517C1423.8,794.337 1424.55,793.296 1425.38,793.296C1426.2,793.296 1427.18,794.483 1428.22,796.892C1430.4,801.546 1435.43,814.292 1443.3,835.142C1451.4,856.883 1456.35,870.167 1457.92,875.033C1458.76,879.167 1459.2,882.017 1459.2,883.592C1459.2,889.583 1453.5,886.067 1442.1,873.013C1440.75,871.142 1440.07,871.971 1440.07,875.488C1440.07,876.317 1442.62,911.946 1447.8,982.521C1452.9,1053.01 1455.52,1095.08 1455.52,1108.66C1455.52,1147.97 1448.47,1178.94 1434.38,1201.43C1422.38,1220.41 1408.27,1229.95 1392.08,1229.95L1391.62,1229.94C1372.43,1229.83 1339.77,1222.1 1321.62,1206.77C1304.66,1190.87 1287.63,1175.03 1270.54,1159.15C1268.36,1157.26 1267.01,1156.28 1266.49,1156.28C1265.81,1156.28 1266.34,1158.32 1268.13,1162.37C1274.37,1176.76 1277.44,1187.05 1277.44,1193.12C1277.44,1216.06 1270.84,1233.38 1257.55,1245.17C1248.03,1253.71 1226.58,1265.12 1193.07,1279.22L1189.22,1280.87Z" style="fill:rgb(0,160,133);fill-rule:nonzero;"/>
                        </g>
                        <g transform="matrix(0.24,0,0,0.24,0,0)">
                            <path d="M1015.88,1132.61C1008.7,1110.34 1003.68,1087.87 1000.83,1065.09C1000.31,1061.12 999.935,1058.71 999.644,1057.75C998.815,1054.74 997.085,1051.51 994.385,1048L1003.53,1025.8C1004.97,1022.12 1006.32,1020.31 1007.36,1020.31C1008.34,1020.31 1009.92,1022.12 1012.24,1025.8L1035.63,1063.22C1038.79,1068.25 1040.29,1071.91 1040.29,1074.23C1040.29,1075.9 1039.54,1076.71 1037.89,1076.71C1035.04,1076.71 1029.93,1074.32 1022.59,1069.6C1024.67,1083.78 1029.31,1101.76 1036.61,1123.45C1051.76,1118.35 1064.83,1115.79 1075.77,1115.79C1087.24,1115.79 1096.39,1120.59 1103.06,1130.34C1109.82,1140.02 1113.18,1152.85 1113.18,1168.67C1113.18,1181.87 1110.34,1192.74 1104.64,1201.29C1098.94,1209.85 1091.36,1214.11 1082.07,1214.11C1069.16,1214.11 1056.71,1207.81 1044.63,1195.36C1035.63,1185.99 1028.96,1175.95 1024.46,1165.22C1002.41,1173.99 977.069,1189.67 948.635,1212.16C927.702,1229.26 906.935,1246.37 886.165,1263.46C870.702,1275.16 856.61,1281.02 843.865,1281.02C830.435,1281.02 818.735,1274.93 808.694,1262.86C798.115,1250.26 792.856,1234.9 792.856,1216.67C792.856,1191.62 803.144,1158.92 823.765,1118.64C825.927,1114.44 827.59,1112.34 828.794,1112.34C829.377,1112.42 829.606,1113.02 829.606,1113.92C829.606,1118.03 825.181,1132.06 816.181,1156.14C807.26,1180.21 802.831,1199.27 802.831,1213.22C802.831,1223.8 805.306,1232.34 810.335,1238.87C815.74,1245.77 823.16,1249.28 832.456,1249.28C847.835,1249.28 862.24,1244.27 875.815,1234.21C892.465,1219.81 909.181,1205.42 925.831,1191.1C955.91,1165.59 985.906,1146.09 1015.76,1132.67L1015.88,1132.61ZM1083.86,1173.39C1089.11,1173.39 1091.82,1171.97 1091.82,1169.11C1091.82,1164.91 1088.06,1161.25 1080.57,1158.09C1075.02,1155.84 1066.02,1155.76 1053.57,1157.94C1060.16,1168.21 1070.28,1173.39 1083.86,1173.39Z" style="fill:rgb(241,89,142);fill-rule:nonzero;"/>
                        </g>
                        <path d="M427.859,190.949C429.695,190.949 430.598,191.828 430.598,193.629C430.598,194.566 430.363,195.555 429.875,196.602C429.551,197.285 428.707,198.437 427.375,200.02C425.484,202.199 424.223,203.727 423.574,204.609C422.496,206.051 421.883,206.77 421.723,206.77C421.688,206.77 421.668,206.734 421.668,206.66C421.668,206.5 421.828,206.012 422.152,205.203C422.875,203.402 424.043,201.586 425.664,199.73C426.617,198.687 427.57,197.645 428.543,196.602C428.184,195.699 427.609,195.25 426.797,195.25C426.203,195.25 425.484,195.449 424.637,195.879C416.375,200.074 408.402,202.18 400.734,202.18C396.504,202.18 392.672,201.262 389.25,199.445C389.754,201.047 389.574,202.953 388.727,205.203C388.402,206.086 388.172,206.535 388.043,206.57C387.938,206.57 387.898,206.031 387.898,204.969C387.898,202.937 387.574,201.227 386.965,199.785C386.875,199.586 385.828,198.023 383.852,195.105C384.176,193.07 384.68,192.062 385.363,192.062C385.414,192.062 385.922,192.422 386.875,193.145C388.008,194.062 389.16,194.816 390.328,195.449C393.82,197.266 397.621,198.184 401.762,198.184C406.117,198.184 410.309,197.555 414.344,196.312C416.719,195.574 419.563,194.402 422.84,192.801C425.41,191.559 427.086,190.949 427.859,190.949Z" style="fill:rgb(255,170,1);fill-rule:nonzero;"/>
                        <path d="M467.766,251.156C467.766,252.437 467.316,253.516 466.414,254.414C465.516,255.316 464.438,255.766 463.176,255.766C461.898,255.766 460.816,255.316 459.898,254.414C459,253.516 458.551,252.437 458.551,251.156C458.551,249.898 459,248.801 459.898,247.898C460.816,246.98 461.898,246.531 463.176,246.531C464.438,246.531 465.516,246.98 466.414,247.898C467.316,248.801 467.766,249.898 467.766,251.156ZM457.074,251.156C457.074,252.437 456.605,253.516 455.707,254.414C454.789,255.316 453.707,255.766 452.43,255.766C451.172,255.766 450.09,255.316 449.191,254.414C448.289,253.516 447.859,252.437 447.859,251.156C447.859,249.898 448.289,248.801 449.191,247.898C450.09,246.98 451.172,246.531 452.43,246.531C453.707,246.531 454.789,246.98 455.707,247.898C456.605,248.801 457.074,249.898 457.074,251.156Z" style="fill:rgb(255,170,1);fill-rule:nonzero;"/>
                        <path d="M380.016,257.672C380.016,258.953 379.566,260.031 378.664,260.934C377.766,261.832 376.688,262.281 375.426,262.281C374.148,262.281 373.066,261.832 372.168,260.934C371.27,260.031 370.836,258.953 370.836,257.672C370.836,256.414 371.27,255.316 372.168,254.414C373.066,253.496 374.148,253.047 375.426,253.047C376.688,253.047 377.766,253.496 378.664,254.414C379.566,255.316 380.016,256.414 380.016,257.672Z" style="fill:rgb(255,170,1);fill-rule:nonzero;"/>
                        <g transform="matrix(1,0,0,1,-3.4295,0)">
                            <path d="M263.629,302.836C263.629,304.113 263.18,305.195 262.277,306.094C261.379,306.992 260.297,307.445 259.039,307.445C257.762,307.445 256.68,306.992 255.762,306.094C254.863,305.195 254.41,304.113 254.41,302.836C254.41,301.574 254.863,300.477 255.762,299.578C256.68,298.66 257.762,298.211 259.039,298.211C260.297,298.211 261.379,298.66 262.277,299.578C263.18,300.477 263.629,301.574 263.629,302.836ZM252.938,302.836C252.938,304.113 252.469,305.195 251.566,306.094C250.648,306.992 249.57,307.445 248.293,307.445C247.031,307.445 245.953,306.992 245.051,306.094C244.152,305.195 243.719,304.113 243.719,302.836C243.719,301.574 244.152,300.477 245.051,299.578C245.953,298.66 247.031,298.211 248.293,298.211C249.57,298.211 250.648,298.66 251.566,299.578C252.469,300.477 252.938,301.574 252.938,302.836Z" style="fill:rgb(255,170,1);fill-rule:nonzero;"/>
                        </g>
                        <g transform="matrix(1,0,0,1,3,-6)">
                            <path d="M462.492,206.266C462.781,205.312 462.852,204.375 462.691,203.422C462.492,202.395 462.023,201.875 461.285,201.875C460.926,201.875 460.441,202.035 459.828,202.379C459.215,202.719 458.91,203.062 458.91,203.387C458.91,204.125 460.098,205.094 462.492,206.266ZM460.637,210.461C457.613,208.895 456.121,207.254 456.121,205.527C456.121,203.906 456.875,202.215 458.406,200.453C459.938,198.687 461.504,197.824 463.086,197.824C464.617,197.824 465.391,199.012 465.391,201.387C465.391,203.098 465.031,205.043 464.293,207.184C465.77,208.031 466.723,208.785 467.172,209.434C467.117,210.352 466.434,211.719 465.137,213.574C464.672,212.926 463.754,212.187 462.348,211.34C457.883,217.586 448.543,223.258 434.285,228.371C433.441,228.656 432.898,228.82 432.664,228.82C432.613,228.82 432.539,228.785 432.484,228.711C432.484,228.551 432.918,228.172 433.801,227.594C434.684,227 439.324,224.355 447.75,219.641C453.547,216.418 457.848,213.359 460.637,210.461Z" style="fill:rgb(255,170,1);fill-rule:nonzero;"/>
                        </g>
                        <path d="M434.52,281.129C434.52,280.191 432.828,278.771 429.445,276.88C428.398,278.859 427.879,280.66 427.879,282.242C427.879,283.27 428.348,283.773 429.281,283.773C430.145,283.773 431.117,283.469 432.215,282.891C433.332,282.297 434.09,281.723 434.52,281.129ZM431.98,265.738C432.434,264.891 432.953,264.477 433.531,264.477C433.891,264.477 434.07,264.641 434.07,264.965C434.07,265.09 434.035,265.215 433.98,265.34C432.898,267.734 431.98,270.094 431.191,272.435C434.609,274.937 436.211,277.457 435.977,279.957C435.742,282.656 435.383,284.352 434.863,285.035C433.352,287.051 431.496,288.074 429.281,288.074C427.141,288.074 426.078,286.762 426.078,284.152C426.078,282.137 426.797,279.023 428.273,274.773C429.535,271.031 430.777,268.023 431.98,265.738Z" style="fill:rgb(255,170,1);fill-rule:nonzero;"/>
                        <path d="M393.012,220.883C393.301,219.926 393.371,218.992 393.211,218.039C393.012,216.992 392.543,216.473 391.789,216.473C391.43,216.473 390.941,216.652 390.328,216.992C389.719,217.336 389.395,217.66 389.395,217.984C389.395,218.738 390.602,219.695 393.012,220.883ZM391.156,225.074C388.133,223.508 386.621,221.871 386.621,220.145C386.621,218.055 387.574,216.148 389.504,214.418C391.41,212.711 393.012,212.062 394.273,212.531C395.352,212.906 395.891,214.078 395.891,215.984C395.891,217.715 395.531,219.656 394.813,221.801C396.344,222.684 397.313,223.437 397.691,224.051C397.691,224.859 397.008,226.246 395.641,228.191C395.262,227.578 394.324,226.84 392.867,225.957C391.176,228.297 389.035,230.422 386.426,232.348C383.453,234.527 380.754,236.184 378.27,237.281C377.746,237.551 374.887,238.629 369.684,240.555C368.875,240.844 368.336,241.004 368.063,241.004C367.938,241.004 367.883,240.969 367.883,240.898C367.883,240.699 368.336,240.32 369.234,239.727C373.086,237.441 376.938,235.156 380.809,232.832C385.434,230.043 388.871,227.453 391.156,225.074Z" style="fill:rgb(255,170,1);fill-rule:nonzero;"/>
                        <g transform="matrix(1,0,0,1,-3.4295,0)">
                            <path d="M266.762,328.703C275.797,325.406 285.406,321.914 295.559,318.191C296.063,318.008 296.387,317.937 296.477,318.008C296.605,318.102 296.586,318.371 296.387,318.836C295.793,320.258 295.324,321.125 294.965,321.43C286.434,324.488 276.48,328.379 265.105,333.113C265.445,331.762 266.004,330.305 266.762,328.703Z" style="fill:rgb(255,170,1);fill-rule:nonzero;"/>
                        </g>
                        <g transform="matrix(1,0,0,1,-3.4295,0)">
                            <path d="M201.617,215.789C201.059,213.359 200.141,210.461 198.863,207.059C197.426,203.223 196.414,201.316 195.875,201.316C195.445,201.316 195.176,201.441 195.047,201.73C194.941,202 194.578,202.145 194.004,202.145C193.34,202.145 192.473,201.641 191.395,200.668C190.313,199.695 189.793,198.922 189.793,198.328C189.793,198.059 190.242,197.176 191.125,195.664C192.023,194.152 192.602,193.414 192.836,193.414C195.012,193.414 196.973,194.711 198.719,197.301C200.449,199.895 201.672,203.297 202.375,207.473C202.445,207.902 202.5,208.156 202.5,208.227C202.57,208.355 202.625,208.355 202.66,208.227C202.715,208.156 202.805,207.902 202.969,207.473C203.309,204.969 204.176,201.242 205.543,196.277C207.02,192.711 208.637,190.949 210.402,190.949C211.301,190.949 212.203,191.543 213.102,192.746C213.875,193.809 214.273,194.672 214.273,195.34C214.273,195.844 214.129,196.508 213.859,197.32C213.496,198.418 213.102,198.977 212.633,198.977C212.438,198.977 212.004,198.543 211.34,197.715C210.672,196.871 209.988,196.457 209.285,196.457C207.719,196.457 206.281,200.145 204.949,207.527C204.246,211.594 203.578,214.258 202.969,215.555C204.211,215.68 205.848,216.543 207.848,218.164C209.863,219.785 210.961,221.187 211.156,222.359C211.195,222.664 210.926,223.473 210.348,224.789C209.754,226.102 209.34,226.785 209.105,226.859C207.199,227.414 205.289,227.937 203.363,228.441C200.988,229.234 199.332,230.152 198.395,231.195C199.223,233.66 200.051,237.641 200.914,243.148C201.887,249.41 202.391,254.668 202.391,258.914C202.391,261.383 202.121,263.812 201.617,266.187C201.422,267.016 201.277,267.43 201.148,267.484C200.914,267.484 200.809,266.117 200.809,263.379C200.809,258.844 200.141,252.707 198.809,244.949C197.477,237.191 196.813,232.852 196.813,231.914C196.813,228.746 197.711,226.426 199.512,224.934C200.359,224.23 201.977,223.527 204.371,222.824C203.398,221.855 202.465,221.367 201.563,221.367C201.133,221.367 200.52,221.871 199.746,222.879C198.953,223.906 198.504,224.41 198.395,224.41C198.199,224.41 198.145,223.977 198.215,223.113C198.648,219.008 199.781,216.578 201.617,215.789Z" style="fill:rgb(255,170,1);fill-rule:nonzero;"/>
                        </g>
                        <g transform="matrix(1,0,0,1,-3.4295,0)">
                            <path d="M309.457,225.832C310.391,226.355 310.844,226.965 310.844,227.687C310.844,228.191 310.625,228.656 310.156,229.109C308.863,230.422 308.051,230.98 307.727,230.816C307.766,230.367 307.313,229.629 306.414,228.621C305.785,228.262 304.109,228.172 301.375,228.332C298.477,228.496 296.137,228.91 294.355,229.594C293.762,229.828 293.473,230.078 293.473,230.387C293.473,230.906 294.426,231.719 296.352,232.816C297.809,233.66 299.699,234.508 302.004,235.336C304.324,236.164 305.73,236.723 306.254,237.027C309.133,238.684 310.445,240.59 310.211,242.734C310.086,244.031 309.258,245.324 307.727,246.641C306.359,247.809 305.406,248.332 304.883,248.207C296.605,246.207 290.773,244.246 287.426,242.285C284.617,240.664 283.23,238.359 283.23,235.355C283.23,234.812 283.285,234.293 283.41,233.805C284.238,235.301 286.129,236.902 289.133,238.629C290.395,239.387 293.617,240.645 298.801,242.445C303.371,244.031 306.234,244.965 307.332,245.219C307.727,243.687 306.27,241.977 302.992,240.051C300.707,239.242 297.594,237.91 293.617,236.09C291.043,234.598 289.766,233.266 289.766,232.078C289.766,231.141 290.629,230.117 292.355,229C296.441,226.371 300.727,225.059 305.191,225.059C307.098,225.059 308.52,225.309 309.457,225.832Z" style="fill:rgb(255,170,1);fill-rule:nonzero;"/>
                        </g>
                        <g transform="matrix(1.94352,0.0724002,-0.0632513,1.69792,-386.805,-249.625)">
                            <path d="M459.469,318.656C457.234,318.605 454.48,318.207 451.223,317.453C448.668,316.859 446.203,316.73 443.824,317.055C439.273,317.703 435.203,320.402 431.605,325.172C431.316,325.551 430.973,325.641 430.559,325.48L427.789,324.383C427.555,324.293 427.52,324.074 427.699,323.75C430.559,319.09 435.223,316.301 441.664,315.398C444.762,314.969 448.129,315.184 451.781,316.047C455.438,316.91 457.922,317.234 459.254,317.055C461.914,316.676 463.156,315.777 462.961,314.32C462.836,313.473 461.684,312.684 459.504,311.891C459.305,311.836 459.145,311.746 459.035,311.672C458.965,311.582 458.965,311.531 459.055,311.512C459.16,311.477 459.305,311.441 459.539,311.441C464.398,311.656 466.973,312.734 467.242,314.699C467.531,316.695 465.73,317.973 461.863,318.512C461.09,318.621 460.297,318.676 459.469,318.656Z" style="fill:rgb(255,170,1);fill-rule:nonzero;"/>
                        </g>
                        <g transform="matrix(1,0,0,1,-3.4295,0)">
                            <path d="M234.289,210.477C234.395,210.242 234.504,210.117 234.613,210.047C234.664,209.992 234.719,210.008 234.758,210.102C234.773,210.207 234.773,210.371 234.719,210.586C234.395,212.441 233.785,214.078 232.883,215.48C231.965,216.902 231.031,217.605 230.059,217.551C228.977,217.516 228.203,216.922 227.699,215.75C227.215,214.602 227.051,213.051 227.215,211.125C227.449,208.77 228.527,205.328 230.488,200.828C232.199,196.887 233.656,194.098 234.848,192.461C235.367,191.738 235.711,191.363 235.871,191.344C235.906,191.469 235.727,191.902 235.367,192.621C232.648,197.934 230.852,202.234 229.949,205.547C229.59,206.859 229.375,208.066 229.32,209.129C229.246,210.641 229.465,211.773 229.969,212.547C230.363,213.176 230.797,213.465 231.246,213.395C232.199,213.25 233.227,212.277 234.289,210.477Z" style="fill:rgb(255,170,1);fill-rule:nonzero;"/>
                        </g>
                        <g transform="matrix(1,0,0,1,1.5705,0.5)">
                            <path d="M319.535,265.02C320.453,265.02 321.301,264.621 322.129,263.828C323.063,262.93 323.531,261.797 323.531,260.426C323.531,258.914 322.688,258.176 320.992,258.176C320.258,258.176 319.609,258.395 319.051,258.863C319.051,257.98 319.66,256.613 320.902,254.758C322.004,253.031 323.117,251.66 324.215,250.652C324.484,250.348 324.559,250.094 324.469,249.863C324.395,249.664 324.215,249.664 323.93,249.824C322.488,250.691 320.957,252.344 319.34,254.758C317.484,257.457 316.566,259.781 316.566,261.742C316.566,263.918 317.555,265.02 319.535,265.02Z" style="fill:rgb(255,170,1);fill-rule:nonzero;"/>
                        </g>
                        <g transform="matrix(1,0,0,1,-2.4295,-3)">
                            <path d="M211.859,282.766C211.859,283.973 211.355,285.32 210.383,286.852C209.375,288.437 208.063,289.805 206.477,290.918C205.848,291.371 205.469,291.605 205.344,291.605C205.324,291.605 205.324,291.586 205.324,291.566C205.324,291.461 205.598,291.137 206.117,290.543C208.746,287.68 210.059,285.773 210.059,284.816C210.059,283.898 209.629,283.449 208.781,283.449C208.332,283.449 207.898,283.574 207.523,283.828C207.254,284.008 207.07,284.117 207,284.133C206.965,284.098 206.891,284.062 206.82,284.043C206.855,283.937 206.891,283.703 206.965,283.305C207.395,281.324 208.367,280.355 209.914,280.355C211.211,280.355 211.859,281.164 211.859,282.766Z" style="fill:rgb(255,170,1);fill-rule:nonzero;"/>
                        </g>
                        <g transform="matrix(1,0,0,1,-3.4295,0)">
                            <path d="M240.695,234.941C241.344,234.941 241.973,234.652 242.551,234.094C243.234,233.426 243.574,232.617 243.574,231.629C243.574,230.547 242.965,230.008 241.738,230.008C241.199,230.008 240.73,230.168 240.336,230.512C240.336,229.863 240.785,228.891 241.668,227.559C242.477,226.316 243.27,225.328 244.063,224.609C244.242,224.391 244.313,224.211 244.242,224.051C244.188,223.906 244.063,223.887 243.848,224.012C242.82,224.645 241.723,225.812 240.551,227.559C239.219,229.504 238.555,231.176 238.555,232.582C238.555,234.148 239.258,234.941 240.695,234.941Z" style="fill:rgb(255,170,1);fill-rule:nonzero;"/>
                        </g>
                        <g transform="matrix(-0.372579,-1.53032,1.53032,-0.372579,42.3179,788.356)">
                            <path d="M240.695,234.941C241.344,234.941 241.973,234.652 242.551,234.094C243.234,233.426 243.574,232.617 243.574,231.629C243.574,230.547 242.965,230.008 241.738,230.008C241.199,230.008 240.73,230.168 240.336,230.512C240.336,229.863 240.785,228.891 241.668,227.559C242.477,226.316 243.27,225.328 244.063,224.609C244.242,224.391 244.313,224.211 244.242,224.051C244.188,223.906 244.063,223.887 243.848,224.012C242.82,224.645 241.723,225.812 240.551,227.559C239.219,229.504 238.555,231.176 238.555,232.582C238.555,234.148 239.258,234.941 240.695,234.941Z" style="fill:rgb(255,170,1);fill-rule:nonzero;"/>
                        </g>
                        <g transform="matrix(1,0,0,1,-3.4295,0)">
                            <path d="M285.59,282.316C285.59,283.793 284.977,285.449 283.77,287.301C282.547,289.246 280.961,290.918 279,292.289C278.227,292.828 277.777,293.117 277.633,293.117C277.598,293.117 277.598,293.098 277.598,293.062C277.598,292.953 277.922,292.539 278.566,291.82C281.773,288.328 283.391,285.988 283.391,284.816C283.391,283.703 282.871,283.145 281.844,283.145C281.27,283.145 280.746,283.289 280.297,283.613C279.953,283.828 279.738,283.973 279.648,283.988C279.594,283.937 279.523,283.898 279.434,283.863C279.469,283.754 279.523,283.449 279.613,282.965C280.117,280.551 281.32,279.363 283.211,279.363C284.797,279.363 285.59,280.355 285.59,282.316Z" style="fill:rgb(255,170,1);fill-rule:nonzero;"/>
                        </g>
                        <path d="M377.262,289.031C378.07,289.031 378.828,288.668 379.547,287.984C380.375,287.195 380.789,286.187 380.789,284.98C380.789,283.664 380.035,283 378.559,283C377.891,283 377.316,283.199 376.828,283.613C376.828,282.836 377.371,281.633 378.469,279.992C379.441,278.48 380.41,277.277 381.383,276.396C381.617,276.141 381.691,275.906 381.602,275.711C381.547,275.531 381.383,275.531 381.133,275.672C379.871,276.449 378.523,277.888 377.102,280.012C375.461,282.387 374.652,284.422 374.652,286.148C374.652,288.059 375.516,289.031 377.262,289.031Z" style="fill:rgb(255,170,1);fill-rule:nonzero;"/>
                        <g transform="matrix(1,0,0,1,-3.4295,0)">
                            <path d="M255.098,203.187C255.742,203.187 256.375,202.898 256.949,202.34C257.633,201.676 257.976,200.867 257.976,199.875C257.976,198.797 257.363,198.254 256.14,198.254C255.602,198.254 255.133,198.418 254.734,198.758C254.734,198.113 255.188,197.141 256.066,195.809C256.879,194.566 257.672,193.574 258.461,192.855C258.64,192.641 258.715,192.461 258.64,192.297C258.59,192.152 258.461,192.137 258.246,192.262C257.219,192.891 256.121,194.062 254.953,195.809C253.621,197.75 252.953,199.426 252.953,200.828C252.953,202.395 253.656,203.187 255.098,203.187Z" style="fill:rgb(255,170,1);fill-rule:nonzero;"/>
                        </g>
                        <g transform="matrix(1,0,0,1,1.0705,0)">
                            <path d="M329.867,233.609C329.867,234.812 329.363,236.164 328.391,237.695C327.383,239.277 326.07,240.645 324.484,241.762C323.855,242.211 323.477,242.445 323.352,242.445C323.336,242.445 323.336,242.426 323.336,242.41C323.336,242.301 323.605,241.977 324.125,241.383C326.754,238.523 328.066,236.613 328.066,235.66C328.066,234.742 327.637,234.293 326.789,234.293C326.34,234.293 325.906,234.418 325.531,234.668C325.262,234.852 325.078,234.957 325.008,234.977C324.973,234.941 324.898,234.902 324.828,234.887C324.863,234.777 324.898,234.543 324.973,234.148C325.402,232.168 326.375,231.195 327.926,231.195C329.219,231.195 329.867,232.004 329.867,233.609Z" style="fill:rgb(255,170,1);fill-rule:nonzero;"/>
                        </g>
                        <path d="M443.754,203.621C444.402,203.621 445.031,203.332 445.609,202.773C446.293,202.109 446.633,201.297 446.633,200.309C446.633,199.227 446.023,198.687 444.797,198.687C444.258,198.687 443.789,198.852 443.395,199.191C443.395,198.543 443.844,197.57 444.727,196.238C445.535,194.996 446.328,194.008 447.121,193.289C447.301,193.07 447.371,192.891 447.301,192.73C447.246,192.586 447.121,192.566 446.902,192.695C445.879,193.324 444.781,194.492 443.609,196.238C442.277,198.184 441.613,199.859 441.613,201.262C441.613,202.828 442.313,203.621 443.754,203.621Z" style="fill:rgb(255,170,1);fill-rule:nonzero;"/>
                        <g transform="matrix(-0.278903,-0.960319,0.960319,-0.278903,415.711,816.088)">
                            <path d="M443.754,203.621C444.402,203.621 445.031,203.332 445.609,202.773C446.293,202.109 446.633,201.297 446.633,200.309C446.633,199.227 446.023,198.687 444.797,198.687C444.258,198.687 443.789,198.852 443.395,199.191C443.395,198.543 443.844,197.57 444.727,196.238C445.535,194.996 446.328,194.008 447.121,193.289C447.301,193.07 447.371,192.891 447.301,192.73C447.246,192.586 447.121,192.566 446.902,192.695C445.879,193.324 444.781,194.492 443.609,196.238C442.277,198.184 441.613,199.859 441.613,201.262C441.613,202.828 442.313,203.621 443.754,203.621Z" style="fill:rgb(255,170,1);fill-rule:nonzero;"/>
                        </g>
                        <g transform="matrix(-0.699756,-1.41088,1.41088,-0.699756,485.475,1098.23)">
                            <path d="M443.754,203.621C444.402,203.621 445.031,203.332 445.609,202.773C446.293,202.109 446.633,201.297 446.633,200.309C446.633,199.227 446.023,198.687 444.797,198.687C444.258,198.687 443.789,198.852 443.395,199.191C443.395,198.543 443.844,197.57 444.727,196.238C445.535,194.996 446.328,194.008 447.121,193.289C447.301,193.07 447.371,192.891 447.301,192.73C447.246,192.586 447.121,192.566 446.902,192.695C445.879,193.324 444.781,194.492 443.609,196.238C442.277,198.184 441.613,199.859 441.613,201.262C441.613,202.828 442.313,203.621 443.754,203.621Z" style="fill:rgb(255,170,1);fill-rule:nonzero;"/>
                        </g>
                        <g transform="matrix(1.22579,0,0,1.22579,-55.3274,-71.4277)">
                            <path d="M207.16,314.336C208.98,314.336 210.617,315.418 212.059,317.578C213.516,319.738 214.523,322.562 215.117,326.055C215.172,326.414 215.207,326.633 215.207,326.687C215.281,326.793 215.316,326.793 215.352,326.687C215.387,326.633 215.461,326.414 215.605,326.055C215.891,323.969 216.613,320.855 217.746,316.73C218.988,313.762 220.34,312.285 221.797,312.285C222.551,312.285 223.289,312.789 224.047,313.797C224.695,314.68 225.02,315.383 225.02,315.941C225.02,316.371 224.91,316.93 224.676,317.613C224.387,318.512 224.047,318.98 223.648,318.98C223.488,318.98 223.129,318.621 222.57,317.918C222.031,317.219 221.453,316.875 220.859,316.875C219.563,316.875 218.359,319.953 217.262,326.09C216.773,328.773 216.234,330.664 215.641,331.762C215.227,332.52 214.867,332.895 214.578,332.895C214.309,332.895 214.184,332.555 214.184,331.871C214.184,330.789 213.57,328.703 212.328,325.586C211.086,322.473 210.223,320.926 209.699,320.926C209.34,320.926 209.105,321.035 209.016,321.27C208.906,321.484 208.621,321.609 208.133,321.609C207.574,321.609 206.855,321.195 205.957,320.387C205.055,319.574 204.625,318.91 204.625,318.422C204.625,318.207 204.984,317.469 205.738,316.211C206.496,314.949 206.965,314.336 207.16,314.336Z" style="fill:rgb(255,170,1);fill-rule:nonzero;"/>
                        </g>
                        <g transform="matrix(1,0,0,1,-3.4295,0)">
                            <path d="M256.625,211.234C272.754,205.203 289.457,198.992 306.703,192.566C307.223,192.387 307.531,192.316 307.621,192.387C307.766,192.477 307.727,192.746 307.531,193.215C306.938,194.637 306.469,195.5 306.109,195.789C305.91,195.988 297.898,199.047 282.043,204.969C265.879,211 256.844,214.562 254.969,215.68C255.293,214.328 255.836,212.855 256.625,211.234Z" style="fill:rgb(255,170,1);fill-rule:nonzero;"/>
                        </g>
                        <g transform="matrix(1.25957,0,0,1.25957,-99.2453,-79.4311)">
                            <path d="M377.496,331.004C378.414,331.004 379.262,330.609 380.09,329.816C381.023,328.918 381.492,327.785 381.492,326.414C381.492,324.902 380.645,324.164 378.953,324.164C378.215,324.164 377.566,324.383 377.012,324.852C377.012,323.969 377.621,322.602 378.863,320.746C379.961,319.02 381.078,317.648 382.176,316.641C382.445,316.336 382.52,316.082 382.43,315.852C382.355,315.652 382.176,315.652 381.887,315.812C380.449,316.676 378.918,318.332 377.297,320.746C375.445,323.445 374.527,325.77 374.527,327.73C374.527,329.906 375.516,331.004 377.496,331.004Z" style="fill:rgb(255,170,1);fill-rule:nonzero;"/>
                        </g>
                        <g transform="matrix(-1.23878,0.734486,0.674561,1.13771,494.594,-268.085)">
                            <path d="M320.023,306.039C320.023,308.543 318.996,311.367 316.945,314.535C314.84,317.867 312.137,320.691 308.824,323.031C307.512,323.969 306.719,324.437 306.484,324.437C306.434,324.437 306.414,324.398 306.414,324.344C306.414,324.164 306.973,323.445 308.09,322.223C313.559,316.281 316.297,312.285 316.297,310.289C316.297,308.379 315.414,307.445 313.648,307.445C312.68,307.445 311.797,307.695 311.023,308.234C310.43,308.633 310.066,308.848 309.926,308.902C309.816,308.793 309.707,308.723 309.547,308.687C309.602,308.488 309.707,307.965 309.852,307.137C310.715,303.035 312.77,301 315.988,301C318.672,301 320.023,302.672 320.023,306.039Z" style="fill:rgb(255,170,1);fill-rule:nonzero;"/>
                        </g>
                        <g transform="matrix(1.53022,0,0,1.53022,-245.104,-122.456)">
                            <path d="M465.535,227.738C465.535,228.945 465.031,230.297 464.059,231.824C463.051,233.41 461.734,234.777 460.152,235.895C459.523,236.344 459.145,236.578 459.02,236.578C459,236.578 459,236.559 459,236.543C459,236.434 459.27,236.109 459.793,235.516C462.422,232.652 463.734,230.746 463.734,229.793C463.734,228.875 463.301,228.422 462.457,228.422C462.008,228.422 461.574,228.551 461.195,228.801C460.926,228.98 460.746,229.09 460.676,229.109C460.637,229.07 460.566,229.035 460.492,229.02C460.531,228.91 460.566,228.676 460.637,228.281C461.07,226.301 462.043,225.328 463.59,225.328C464.887,225.328 465.535,226.137 465.535,227.738Z" style="fill:rgb(255,170,1);fill-rule:nonzero;"/>
                        </g>
                        <g transform="matrix(0.9432,1.20497,-1.20497,0.9432,191.048,-441.9)">
                            <path d="M465.535,227.738C465.535,228.945 465.031,230.297 464.059,231.824C463.051,233.41 461.734,234.777 460.152,235.895C459.523,236.344 459.145,236.578 459.02,236.578C459,236.578 459,236.559 459,236.543C459,236.434 459.27,236.109 459.793,235.516C462.422,232.652 463.734,230.746 463.734,229.793C463.734,228.875 463.301,228.422 462.457,228.422C462.008,228.422 461.574,228.551 461.195,228.801C460.926,228.98 460.746,229.09 460.676,229.109C460.637,229.07 460.566,229.035 460.492,229.02C460.531,228.91 460.566,228.676 460.637,228.281C461.07,226.301 462.043,225.328 463.59,225.328C464.887,225.328 465.535,226.137 465.535,227.738Z" style="fill:rgb(255,170,1);fill-rule:nonzero;"/>
                        </g>
                        <path d="M371.629,218.145C371.773,217.48 372.348,215.59 373.355,212.531C373.969,210.656 374.273,208.445 374.273,205.922C374.273,205.312 374.258,204.645 374.238,203.945C374.094,200.504 372.563,197.336 369.648,194.422C369.414,194.187 369.379,193.937 369.559,193.648L370.602,191.793C370.727,191.594 370.871,191.594 371.07,191.793C372.871,193.523 374.059,195.125 374.652,196.602C375.137,197.84 375.48,199.859 375.68,202.613C375.715,203.223 375.75,203.816 375.75,204.41C375.75,206.535 375.227,209.184 374.219,212.312C373.195,215.465 372.691,217.676 372.691,218.957C372.691,220.809 373.211,221.746 374.258,221.746C374.867,221.746 375.551,221.008 376.324,219.512C376.398,219.387 376.469,219.281 376.543,219.207C376.613,219.152 376.648,219.172 376.648,219.242C376.688,219.316 376.688,219.422 376.648,219.586C376.02,223.043 374.992,224.77 373.555,224.77C372.098,224.77 371.359,223.383 371.359,220.613C371.359,219.836 371.449,219.027 371.629,218.145Z" style="fill:rgb(255,170,1);fill-rule:nonzero;"/>
                        <g transform="matrix(1,0,0,1,3,-0.5)">
                            <path d="M423.594,251.266C423.738,250.602 424.313,248.711 425.32,245.648C425.934,243.777 426.238,241.562 426.238,239.043C426.238,238.434 426.223,237.766 426.203,237.062C426.059,233.625 424.531,230.457 421.613,227.543C421.379,227.309 421.344,227.055 421.523,226.77L422.566,224.914C422.695,224.715 422.84,224.715 423.035,224.914C424.836,226.641 426.023,228.242 426.617,229.719C427.105,230.961 427.445,232.977 427.645,235.73C427.68,236.344 427.715,236.937 427.715,237.531C427.715,239.656 427.195,242.301 426.188,245.434C425.16,248.582 424.656,250.797 424.656,252.074C424.656,253.93 425.18,254.867 426.223,254.867C426.836,254.867 427.52,254.129 428.293,252.633C428.363,252.508 428.438,252.398 428.508,252.328C428.578,252.273 428.617,252.293 428.617,252.363C428.652,252.437 428.652,252.543 428.617,252.707C427.984,256.16 426.961,257.891 425.52,257.891C424.063,257.891 423.324,256.504 423.324,253.73C423.324,252.957 423.414,252.148 423.594,251.266Z" style="fill:rgb(255,170,1);fill-rule:nonzero;"/>
                        </g>
                        <g transform="matrix(1.12256,0,0,1.12256,-31.3448,-34.6527)">
                            <path d="M222.102,265.234C222.266,264.477 222.895,262.391 224.012,258.988C224.695,256.898 225.035,254.453 225.035,251.645C225.035,250.961 225.02,250.238 224.98,249.449C224.84,245.633 223.145,242.105 219.906,238.863C219.652,238.613 219.602,238.324 219.797,238.02L220.969,235.949C221.094,235.73 221.258,235.73 221.473,235.949C223.469,237.875 224.801,239.656 225.449,241.293C226.008,242.66 226.387,244.895 226.586,247.973C226.637,248.637 226.676,249.305 226.676,249.953C226.676,252.328 226.098,255.262 224.965,258.734C223.828,262.227 223.273,264.695 223.273,266.117C223.273,268.169 223.848,269.211 225.02,269.211C225.703,269.211 226.457,268.383 227.32,266.746C227.395,266.602 227.484,266.477 227.555,266.402C227.645,266.352 227.684,266.367 227.684,266.441C227.699,266.512 227.699,266.656 227.684,266.836C226.98,270.652 225.828,272.578 224.242,272.578C222.605,272.578 221.797,271.031 221.797,267.969C221.797,267.105 221.887,266.187 222.102,265.234Z" style="fill:rgb(255,170,1);fill-rule:nonzero;"/>
                        </g>
                    </g>
                </g>
            </g>
        </g>
    </g>
</svg>
